<svg xmlns="http://www.w3.org/2000/svg" width="760" height="300" viewBox="0 0 760 300" role="img" aria-labelledby="title desc">
  <title id="title">ALECOMAN Industrial</title>
  <desc id="desc">Logo industrial con engranaje, piladora, silos, banda transportadora y arroz.</desc>
  <defs>
    <linearGradient id="blue" x1="0" x2="1" y1="0" y2="1">
      <stop offset="0" stop-color="#10b7ff"/>
      <stop offset="0.5" stop-color="#006de8"/>
      <stop offset="1" stop-color="#003a92"/>
    </linearGradient>
    <linearGradient id="gold" x1="0" x2="1" y1="0" y2="1">
      <stop offset="0" stop-color="#ffe76a"/>
      <stop offset="0.45" stop-color="#ffb300"/>
      <stop offset="1" stop-color="#e17a00"/>
    </linearGradient>
    <linearGradient id="steel" x1="0" x2="1" y1="0" y2="1">
      <stop offset="0" stop-color="#f6fbff"/>
      <stop offset="0.35" stop-color="#9aa8b3"/>
      <stop offset="1" stop-color="#26323b"/>
    </linearGradient>
    <linearGradient id="dark" x1="0" x2="0" y1="0" y2="1">
      <stop offset="0" stop-color="#111923"/>
      <stop offset="1" stop-color="#05080d"/>
    </linearGradient>
    <filter id="shadow" x="-20%" y="-20%" width="140%" height="145%">
      <feDropShadow dx="0" dy="10" stdDeviation="10" flood-color="#000" flood-opacity="0.45"/>
    </filter>
  </defs>

  <rect width="760" height="300" rx="22" fill="none"/>
  <g filter="url(#shadow)">
    <path d="M86 232 C118 196 146 178 187 170 L601 170 C634 176 663 193 690 232 L666 282 L58 282 Z" fill="url(#dark)"/>
    <path d="M113 221 C210 198 392 192 640 213" fill="none" stroke="#f7fbff" stroke-width="7" stroke-linecap="round"/>
    <path d="M221 226 C352 242 483 238 618 218" fill="none" stroke="url(#blue)" stroke-width="10" stroke-linecap="round"/>
  </g>

  <g transform="translate(206 44)" filter="url(#shadow)">
    <path d="M92 20 L123 30 L123 45 L139 45 L139 69 L152 69 L152 128 L20 128 L20 61 L47 61 L47 35 L70 35 L70 20 Z" fill="#121b24" stroke="#dbe8f2" stroke-width="3"/>
    <path d="M34 72 H139 M34 93 H139 M34 114 H139" stroke="#60717e" stroke-width="3"/>
    <path d="M63 35 H113 M70 20 H92" stroke="#ffb000" stroke-width="6"/>
    <path d="M156 75 L245 98 L276 140" fill="none" stroke="#dbe8f2" stroke-width="6"/>
    <ellipse cx="202" cy="98" rx="20" ry="47" fill="url(#steel)" stroke="#f5f8fb" stroke-width="3"/>
    <ellipse cx="252" cy="101" rx="21" ry="50" fill="url(#steel)" stroke="#f5f8fb" stroke-width="3"/>
    <path d="M201 72 H253 M201 96 H253 M201 122 H253" stroke="#596874" stroke-width="2"/>
    <path d="M285 134 L405 158" stroke="#cfd8df" stroke-width="18" stroke-linecap="round"/>
    <path d="M285 134 L405 158" stroke="#1b2833" stroke-width="10" stroke-linecap="round"/>
    <circle cx="288" cy="134" r="16" fill="#18212b" stroke="#e7edf2" stroke-width="5"/>
    <circle cx="405" cy="158" r="16" fill="#18212b" stroke="#e7edf2" stroke-width="5"/>
    <path d="M420 162 C444 166 461 179 471 199 C448 203 426 197 409 181 Z" fill="#efe7d4"/>
    <g fill="#f8f0df">
      <circle cx="427" cy="177" r="5"/><circle cx="443" cy="181" r="4"/><circle cx="455" cy="192" r="5"/>
      <circle cx="418" cy="194" r="4"/><circle cx="438" cy="199" r="5"/><circle cx="462" cy="202" r="4"/>
    </g>
  </g>

  <g transform="translate(135 72)" filter="url(#shadow)">
    <path d="M62 0 L73 25 L102 19 L94 47 L118 63 L92 76 L96 106 L67 98 L48 122 L32 95 L3 98 L14 69 L-6 48 L24 38 L32 10 Z" fill="#f8fbff"/>
    <circle cx="54" cy="62" r="48" fill="#101820"/>
    <rect x="25" y="68" width="16" height="35" fill="url(#blue)"/>
    <rect x="48" y="53" width="16" height="50" fill="url(#blue)"/>
    <rect x="71" y="31" width="16" height="72" fill="url(#gold)"/>
    <rect x="94" y="48" width="16" height="55" fill="url(#gold)"/>
  </g>

  <text x="89" y="236" font-family="Arial Black, Arial, sans-serif" font-size="58" font-weight="900" font-style="italic" fill="url(#blue)" stroke="#07101a" stroke-width="2">ALECO</text>
  <text x="374" y="236" font-family="Arial Black, Arial, sans-serif" font-size="58" font-weight="900" font-style="italic" fill="#f4f6f8" stroke="#07101a" stroke-width="2">MAN</text>
  <text x="260" y="272" font-family="Arial, sans-serif" font-size="27" font-weight="800" letter-spacing="13" fill="#f6f7f8">INDUSTRIAL</text>
  <path d="M128 262 H230 M560 262 H662" stroke="#e6eaf0" stroke-width="4"/>
</svg>
