<svg xmlns="http://www.w3.org/2000/svg" width="600" height="400" viewBox="0 0 600 400">
  <defs>
    <linearGradient id="bgSec" x1="0%" y1="0%" x2="100%" y2="100%">
      <stop offset="0%" style="stop-color:#0F172A"/>
      <stop offset="100%" style="stop-color:#1E3A5F"/>
    </linearGradient>
    <linearGradient id="heatSec" x1="0%" y1="100%" x2="0%" y2="0%">
      <stop offset="0%" style="stop-color:#F59E0B"/>
      <stop offset="50%" style="stop-color:#EF4444"/>
      <stop offset="100%" style="stop-color:#DC2626"/>
    </linearGradient>
  </defs>
  
  <rect width="600" height="400" fill="url(#bgSec)"/>
  
  <g transform="translate(220, 40)">
    <rect x="0" y="0" width="80" height="240" fill="#9CA3AF" rx="4"/>
    <rect x="10" y="10" width="60" height="220" fill="#374151" rx="2"/>
    
    <rect x="5" y="50" width="70" height="3" fill="#6B7280"/>
    <rect x="5" y="100" width="70" height="3" fill="#6B7280"/>
    <rect x="5" y="150" width="70" height="3" fill="#6B7280"/>
    
    <rect x="15" y="60" width="50" height="25" fill="url(#heatSec)" opacity="0.5" rx="2"/>
    <rect x="15" y="110" width="50" height="25" fill="url(#heatSec)" opacity="0.3" rx="2"/>
    
    <polygon x="20" y="0" points="20,0 60,0 50,-25 30,-25" fill="#4B5563"/>
    <rect x="-10" y="240" width="100" height="25" fill="#4B5563" rx="4"/>
    
    <rect x="80" y="80" width="50" height="12" fill="#6B7280" rx="3"/>
    <rect x="80" y="130" width="50" height="12" fill="#6B7280" rx="3"/>
  </g>
  
  <g stroke="#F59E0B" stroke-width="2" fill="none" opacity="0.4">
    <path d="M260 20 Q265 10 260 0"/>
    <path d="M280 15 Q285 5 280 -5"/>
    <path d="M300 20 Q305 10 300 0"/>
  </g>
  
  <rect x="150" y="330" width="300" height="35" fill="#1E3A5F" rx="8" opacity="0.9"/>
  <text x="300" y="353" font-family="Arial" font-size="14" fill="#F59E0B" text-anchor="middle" font-weight="bold">SECADORA INDUSTRIAL - 50 TON/DÍA</text>
</svg>