<svg xmlns="http://www.w3.org/2000/svg" width="600" height="400" viewBox="0 0 600 400">
  <defs>
    <linearGradient id="bgPil" x1="0%" y1="0%" x2="100%" y2="100%">
      <stop offset="0%" style="stop-color:#0F172A"/>
      <stop offset="100%" style="stop-color:#1E3A5F"/>
    </linearGradient>
    <linearGradient id="steelPil" x1="0%" y1="0%" x2="100%" y2="100%">
      <stop offset="0%" style="stop-color:#E5E7EB"/>
      <stop offset="50%" style="stop-color:#9CA3AF"/>
      <stop offset="100%" style="stop-color:#4B5563"/>
    </linearGradient>
  </defs>
  
  <rect width="600" height="400" fill="url(#bgPil)"/>
  
  <g transform="translate(150, 60)">
    <rect x="0" y="80" width="300" height="160" fill="url(#steelPil)" rx="8"/>
    <rect x="10" y="90" width="280" height="140" fill="#1F2937" rx="4"/>
    
    <polygon points="100,80 200,80 180,40 120,40" fill="#374151" stroke="#6B7280" stroke-width="2"/>
    
    <rect x="30" y="110" width="100" height="70" fill="#374151" rx="4"/>
    <circle cx="80" cy="145" r="25" fill="#1F2937" stroke="#F59E0B" stroke-width="3"/>
    <circle cx="80" cy="145" r="12" fill="#F59E0B"/>
    
    <rect x="150" y="120" width="80" height="40" fill="#4B5563" rx="4"/>
    <rect x="200" y="100" width="70" height="50" fill="#111827" rx="4"/>
    <circle cx="215" cy="115" r="5" fill="#10B981"/>
    <circle cx="235" cy="115" r="5" fill="#EF4444"/>
  </g>
  
  <g fill="#FEF3C7">
    <ellipse cx="380" cy="280" rx="6" ry="3" transform="rotate(-30 380 280)"/>
    <ellipse cx="400" cy="290" rx="6" ry="3" transform="rotate(20 400 290)"/>
    <ellipse cx="390" cy="300" rx="6" ry="3" transform="rotate(-15 390 300)"/>
  </g>
  
  <rect x="150" y="330" width="300" height="35" fill="#1E3A5F" rx="8" opacity="0.9"/>
  <text x="300" y="353" font-family="Arial" font-size="14" fill="#F59E0B" text-anchor="middle" font-weight="bold">PILADORA MANTENIMIENTO PREMIUM</text>
</svg>