<svg xmlns="http://www.w3.org/2000/svg" width="600" height="400" viewBox="0 0 600 400">
  <defs>
    <linearGradient id="bgPlanta" x1="0%" y1="0%" x2="100%" y2="100%">
      <stop offset="0%" style="stop-color:#0F172A"/>
      <stop offset="100%" style="stop-color:#1E3A5F"/>
    </linearGradient>
    <linearGradient id="concPlanta" x1="0%" y1="0%" x2="100%" y2="100%">
      <stop offset="0%" style="stop-color:#D1D5DB"/>
      <stop offset="100%" style="stop-color:#9CA3AF"/>
    </linearGradient>
  </defs>
  
  <rect width="600" height="400" fill="url(#bgPlanta)"/>
  <rect x="0" y="280" width="600" height="120" fill="#374151"/>
  
  <g transform="translate(100, 100)">
    <rect x="0" y="100" width="400" height="80" fill="url(#concPlanta)"/>
    <rect x="-15" y="85" width="430" height="20" fill="#6B7280"/>
    
    <polygon points="0,85 200,40 400,85" fill="#4B5563"/>
    
    <rect x="30" y="120" width="50" height="35" fill="#60A5FA" rx="2" opacity="0.6"/>
    <rect x="100" y="120" width="50" height="35" fill="#60A5FA" rx="2" opacity="0.6"/>
    <rect x="250" y="120" width="50" height="35" fill="#60A5FA" rx="2" opacity="0.6"/>
    <rect x="320" y="120" width="50" height="35" fill="#60A5FA" rx="2" opacity="0.6"/>
    
    <rect x="170" y="140" width="60" height="40" fill="#374151" rx="4"/>
    
    <rect x="420" y="100" width="60" height="10" fill="#6B7280" rx="3"/>
    <rect x="420" y="130" width="60" height="10" fill="#6B7280" rx="3"/>
    <ellipse cx="490" cy="120" rx="20" ry="40" fill="#9CA3AF" stroke="#6B7280" stroke-width="2"/>
  </g>
  
  <g transform="translate(60, 80)">
    <rect x="0" y="0" width="8" height="200" fill="#F59E0B"/>
    <rect x="0" y="0" width="80" height="8" fill="#F59E0B"/>
  </g>
  
  <rect x="150" y="330" width="300" height="35" fill="#1E3A5F" rx="8" opacity="0.9"/>
  <text x="300" y="353" font-family="Arial" font-size="14" fill="#F59E0B" text-anchor="middle" font-weight="bold">PLANTA DE PROCESAMIENTO</text>
</svg>