<svg xmlns="http://www.w3.org/2000/svg" width="600" height="400" viewBox="0 0 600 400">
  <defs>
    <linearGradient id="bgGalpon" x1="0%" y1="0%" x2="100%" y2="100%">
      <stop offset="0%" style="stop-color:#0F172A"/>
      <stop offset="100%" style="stop-color:#1E3A5F"/>
    </linearGradient>
    <linearGradient id="roofGalpon" x1="0%" y1="0%" x2="0%" y2="100%">
      <stop offset="0%" style="stop-color:#DC2626"/>
      <stop offset="100%" style="stop-color:#991B1B"/>
    </linearGradient>
  </defs>
  
  <rect width="600" height="400" fill="url(#bgGalpon)"/>
  <rect x="0" y="300" width="600" height="100" fill="#374151"/>
  
  <g transform="translate(80, 100)">
    <rect x="0" y="100" width="440" height="100" fill="#D1D5DB"/>
    <polygon points="0,100 220,40 440,100" fill="url(#roofGalpon)"/>
    
    <rect x="20" y="100" width="12" height="100" fill="#6B7280"/>
    <rect x="100" y="100" width="12" height="100" fill="#6B7280"/>
    <rect x="214" y="100" width="12" height="100" fill="#6B7280"/>
    <rect x="328" y="100" width="12" height="100" fill="#6B7280"/>
    <rect x="408" y="100" width="12" height="100" fill="#6B7280"/>
    
    <rect x="180" y="140" width="80" height="60" fill="#374151" rx="4"/>
    <rect x="40" y="120" width="60" height="35" fill="#60A5FA" rx="2" opacity="0.6"/>
    <rect x="340" y="120" width="60" height="35" fill="#60A5FA" rx="2" opacity="0.6"/>
  </g>
  
  <rect x="150" y="330" width="300" height="35" fill="#1E3A5F" rx="8" opacity="0.9"/>
  <text x="300" y="353" font-family="Arial" font-size="14" fill="#F59E0B" text-anchor="middle" font-weight="bold">GALPÓN INDUSTRIAL - 2000M²</text>
</svg>